<mxfile host="65bd71144e">
    <diagram id="BajBtx-4pcgjEMsJ3ztx" name="Page-1">
        <mxGraphModel dx="652" dy="620" grid="1" gridSize="10" guides="1" tooltips="1" connect="1" arrows="1" fold="1" page="1" pageScale="1" pageWidth="850" pageHeight="1100" math="0" shadow="0">
            <root>
                <mxCell id="0"/>
                <mxCell id="1" parent="0"/>
                <mxCell id="2" value="Client" style="rounded=1;whiteSpace=wrap;html=1;" vertex="1" parent="1">
                    <mxGeometry x="30" y="120" width="60" height="310" as="geometry"/>
                </mxCell>
                <mxCell id="3" value="Server" style="rounded=1;whiteSpace=wrap;html=1;" vertex="1" parent="1">
                    <mxGeometry x="380" y="120" width="60" height="310" as="geometry"/>
                </mxCell>
                <mxCell id="4" value="" style="endArrow=classic;html=1;exitX=1.017;exitY=0.075;exitDx=0;exitDy=0;exitPerimeter=0;entryX=-0.053;entryY=0.077;entryDx=0;entryDy=0;entryPerimeter=0;" edge="1" parent="1" source="2" target="3">
                    <mxGeometry width="50" height="50" relative="1" as="geometry">
                        <mxPoint x="270" y="340" as="sourcePoint"/>
                        <mxPoint x="320" y="290" as="targetPoint"/>
                    </mxGeometry>
                </mxCell>
                <mxCell id="5" value="Start auth" style="rounded=1;whiteSpace=wrap;html=1;" vertex="1" parent="1">
                    <mxGeometry x="160" y="130" width="120" height="30" as="geometry"/>
                </mxCell>
                <mxCell id="6" value="Provider" style="rounded=1;whiteSpace=wrap;html=1;" vertex="1" parent="1">
                    <mxGeometry x="700" y="120" width="60" height="310" as="geometry"/>
                </mxCell>
                <mxCell id="7" value="" style="endArrow=classic;html=1;entryX=-0.053;entryY=0.223;entryDx=0;entryDy=0;entryPerimeter=0;exitX=1.045;exitY=0.225;exitDx=0;exitDy=0;exitPerimeter=0;" edge="1" parent="1" source="3" target="6">
                    <mxGeometry width="50" height="50" relative="1" as="geometry">
                        <mxPoint x="450" y="190" as="sourcePoint"/>
                        <mxPoint x="500" y="140" as="targetPoint"/>
                    </mxGeometry>
                </mxCell>
                <mxCell id="8" value="OAuth request" style="rounded=1;whiteSpace=wrap;html=1;" vertex="1" parent="1">
                    <mxGeometry x="520" y="170" width="120" height="30" as="geometry"/>
                </mxCell>
                <mxCell id="9" value="" style="endArrow=classic;html=1;entryX=1.058;entryY=0.424;entryDx=0;entryDy=0;entryPerimeter=0;" edge="1" parent="1" target="3">
                    <mxGeometry width="50" height="50" relative="1" as="geometry">
                        <mxPoint x="700" y="250" as="sourcePoint"/>
                        <mxPoint x="470" y="290" as="targetPoint"/>
                    </mxGeometry>
                </mxCell>
                <mxCell id="10" value="Code Grant&lt;br&gt;(Refresh token, user)" style="rounded=1;whiteSpace=wrap;html=1;" vertex="1" parent="1">
                    <mxGeometry x="510" y="230" width="140" height="50" as="geometry"/>
                </mxCell>
                <mxCell id="13" value="On the server callback URL" style="text;html=1;strokeColor=none;fillColor=none;align=center;verticalAlign=middle;whiteSpace=wrap;rounded=0;" vertex="1" parent="1">
                    <mxGeometry x="485" y="280" width="190" height="30" as="geometry"/>
                </mxCell>
                <mxCell id="14" value="" style="endArrow=classic;html=1;exitX=-0.025;exitY=0.637;exitDx=0;exitDy=0;exitPerimeter=0;entryX=1.031;entryY=0.639;entryDx=0;entryDy=0;entryPerimeter=0;" edge="1" parent="1" source="3" target="2">
                    <mxGeometry width="50" height="50" relative="1" as="geometry">
                        <mxPoint x="220" y="330" as="sourcePoint"/>
                        <mxPoint x="270" y="280" as="targetPoint"/>
                    </mxGeometry>
                </mxCell>
                <mxCell id="15" value="Callback on the client's callback URL" style="rounded=1;whiteSpace=wrap;html=1;" vertex="1" parent="1">
                    <mxGeometry x="130" y="300" width="210" height="30" as="geometry"/>
                </mxCell>
                <mxCell id="16" value="" style="endArrow=classic;html=1;exitX=1.031;exitY=0.803;exitDx=0;exitDy=0;exitPerimeter=0;" edge="1" parent="1" source="2">
                    <mxGeometry width="50" height="50" relative="1" as="geometry">
                        <mxPoint x="280" y="320" as="sourcePoint"/>
                        <mxPoint x="210" y="370" as="targetPoint"/>
                    </mxGeometry>
                </mxCell>
                <mxCell id="17" value="User is authenticated at this point" style="text;html=1;strokeColor=none;fillColor=none;align=center;verticalAlign=middle;whiteSpace=wrap;rounded=0;" vertex="1" parent="1">
                    <mxGeometry x="100" y="370" width="200" height="30" as="geometry"/>
                </mxCell>
                <mxCell id="18" value="&lt;b&gt;&lt;font style=&quot;font-size: 20px;&quot;&gt;OAuth Flow&lt;/font&gt;&lt;/b&gt;" style="text;html=1;strokeColor=none;fillColor=none;align=center;verticalAlign=middle;whiteSpace=wrap;rounded=0;" vertex="1" parent="1">
                    <mxGeometry x="30" y="60" width="240" height="30" as="geometry"/>
                </mxCell>
            </root>
        </mxGraphModel>
    </diagram>
</mxfile>
